<svg width="24" height="24" viewBox="0 0 24 24" fill="none" xmlns="http://www.w3.org/2000/svg">
<path fill-rule="evenodd" clip-rule="evenodd" d="M6.82373 2.00509L7 2H13L13.0778 2.00298L13.1988 2.01976L13.3121 2.04974L13.4232 2.09367L13.5207 2.146L13.6254 2.21969L13.7071 2.29289L19.7071 8.29289C19.7425 8.32829 19.7747 8.36567 19.8037 8.40469L19.8753 8.51594L19.9288 8.62866L19.9642 8.73401L19.9882 8.84601L19.9983 8.94074L20 9V19C20 20.5977 18.7511 21.9037 17.1763 21.9949L17 22H7C5.40231 22 4.09634 20.7511 4.00509 19.1763L4 19V5C4 3.40232 5.24892 2.09634 6.82373 2.00509ZM12 4H7C6.48716 4 6.06449 4.38604 6.00673 4.88338L6 5V19C6 19.5129 6.38603 19.9355 6.88338 19.9933L7 20H17C17.5129 20 17.9355 19.614 17.9933 19.1166L18 19V10H14C12.9456 10 12.0818 9.18412 12.0055 8.14926L12 8V4Z" fill="#1B1C1E"/>
<path d="M10.9156 11.255C11.2627 11.0617 11.6363 11 12.0002 11C12.421 11 12.9105 11.1442 13.3057 11.4809C13.7192 11.8343 14 12.3761 14 13.0828C14 13.8955 13.4489 14.3364 13.1385 14.5848L13.0705 14.6398C12.7314 14.9173 12.6002 15.0657 12.6002 15.3749C12.6002 15.5407 12.537 15.6997 12.4245 15.8169C12.3119 15.9341 12.1594 16 12.0002 16C11.8411 16 11.6885 15.9341 11.576 15.8169C11.4635 15.6997 11.4003 15.5407 11.4003 15.3749C11.4003 14.4297 11.969 13.9513 12.3298 13.6563C12.7402 13.3204 12.8001 13.2454 12.8001 13.0828C12.8001 12.752 12.681 12.5644 12.5442 12.4486C12.389 12.3213 12.1977 12.2512 12.0002 12.2494C11.7643 12.2494 11.6019 12.2902 11.4803 12.3577C11.3659 12.4211 11.2451 12.5328 11.1283 12.7578C11.0908 12.83 11.04 12.8939 10.9787 12.9456C10.9175 12.9974 10.8471 13.0361 10.7715 13.0595C10.6959 13.0829 10.6167 13.0906 10.5382 13.0821C10.4598 13.0736 10.3838 13.049 10.3144 13.0099C10.2451 12.9708 10.1839 12.9178 10.1342 12.854C10.0845 12.7902 10.0474 12.7169 10.0249 12.6381C10.0024 12.5594 9.99506 12.4768 10.0032 12.3951C10.0114 12.3133 10.0349 12.2341 10.0725 12.1619C10.2836 11.7568 10.562 11.4509 10.9156 11.2542V11.255Z" fill="#1B1C1E"/>
<path d="M12 18.5C12.1989 18.5 12.3897 18.421 12.5303 18.2803C12.671 18.1397 12.75 17.9489 12.75 17.75C12.75 17.5511 12.671 17.3603 12.5303 17.2197C12.3897 17.079 12.1989 17 12 17C11.8011 17 11.6103 17.079 11.4697 17.2197C11.329 17.3603 11.25 17.5511 11.25 17.75C11.25 17.9489 11.329 18.1397 11.4697 18.2803C11.6103 18.421 11.8011 18.5 12 18.5Z" fill="#1B1C1E"/>
</svg>
